<svg width="14" height="14" viewBox="0 0 14 14" fill="none" xmlns="http://www.w3.org/2000/svg">
<path d="M7.00001 6.26658C6.59334 6.26658 6.26668 6.59325 6.26668 6.99992C6.26668 7.40659 6.59334 7.73325 7.00001 7.73325C7.40668 7.73325 7.73334 7.40659 7.73334 6.99992C7.73334 6.59325 7.40668 6.26658 7.00001 6.26658ZM7.00001 0.333252C3.32001 0.333252 0.333344 3.31992 0.333344 6.99992C0.333344 10.6799 3.32001 13.6666 7.00001 13.6666C10.68 13.6666 13.6667 10.6799 13.6667 6.99992C13.6667 3.31992 10.68 0.333252 7.00001 0.333252ZM8.46001 8.45992L3.00001 10.9999L5.54001 5.53992L11 2.99992L8.46001 8.45992Z" fill="white"/>
</svg>
