<svg width="20" height="18" viewBox="0 0 20 18" fill="none" xmlns="http://www.w3.org/2000/svg">
<path d="M2.47 17.0075H17.53C19.07 17.0075 20.03 15.3375 19.26 14.0075L11.73 0.9975C10.96 -0.3325 9.04 -0.3325 8.27 0.9975L0.739999 14.0075C-0.0300008 15.3375 0.929999 17.0075 2.47 17.0075ZM10 10.0075C9.45 10.0075 9 9.5575 9 9.0075V7.0075C9 6.4575 9.45 6.0075 10 6.0075C10.55 6.0075 11 6.4575 11 7.0075V9.0075C11 9.5575 10.55 10.0075 10 10.0075ZM11 14.0075H9V12.0075H11V14.0075Z" fill="#0F2037"/>
</svg>
