<svg width="12" height="12" viewBox="0 0 12 12" fill="none" xmlns="http://www.w3.org/2000/svg">
<path d="M10.6667 0H1.32667C0.586667 0 0.00666666 0.593333 0.00666666 1.33333L0 10.6667C0 11.4 0.586667 12 1.32667 12H10.6667C11.4 12 12 11.4 12 10.6667V1.33333C12 0.593333 11.4 0 10.6667 0ZM10.6667 8H8.58C8.26667 8 8.01333 8.22667 7.92667 8.53333C7.69333 9.38 6.91333 10 6 10C5.08667 10 4.30667 9.38 4.07333 8.53333C3.98667 8.22667 3.73333 8 3.42 8H1.33333V2C1.33333 1.63333 1.63333 1.33333 2 1.33333H10C10.3667 1.33333 10.6667 1.63333 10.6667 2V8Z" fill="white"/>
</svg>
