<svg width="24" height="24" viewBox="0 0 24 24" fill="none" xmlns="http://www.w3.org/2000/svg">
<path fill-rule="evenodd" clip-rule="evenodd" d="M20.2222 18H7.77778C7.35 18 7 17.55 7 17C7 16.45 7.35 16 7.77778 16H20.2222C20.65 16 21 16.45 21 17C21 17.55 20.65 18 20.2222 18ZM20.2222 13H7.77778C7.35 13 7 12.55 7 12C7 11.45 7.35 11 7.77778 11H20.2222C20.65 11 21 11.45 21 12C21 12.55 20.65 13 20.2222 13ZM7.77778 8C7.35 8 7 7.55 7 7C7 6.45 7.35 6 7.77778 6H20.2222C20.65 6 21 6.45 21 7C21 7.55 20.65 8 20.2222 8H7.77778ZM5 13.5V15L2.11842 12.27C1.96053 12.12 1.96053 11.8875 2.11842 11.7375L5 9V10.5V11.25V12.75V13.5Z" fill="#0F2037"/>
</svg>
