<svg width="16" height="16" viewBox="0 0 16 16" fill="none" xmlns="http://www.w3.org/2000/svg">
<path fill-rule="evenodd" clip-rule="evenodd" d="M9.33334 15.334L14 15.332C14.7363 15.332 15.3333 14.7363 15.3333 14V2C15.3333 1.26367 14.7363 0.666016 14 0.666016H1.99997C1.26358 0.666016 0.666626 1.26367 0.666626 2V14C0.666626 14.7363 1.26358 15.332 1.99997 15.332L7.33334 15.334V10H6.01389V8H7.33334V6.66602C7.33334 5.19336 8.52722 4 10 4H12V6H10C9.63181 6 9.33334 6.29883 9.33334 6.66602V8H12L11.6667 10H9.33334V15.334Z" fill="white"/>
</svg>
