<svg width="18" height="18" viewBox="0 0 18 18" fill="none" xmlns="http://www.w3.org/2000/svg">
<path d="M17.25 10.539V6.75C17.25 3.0285 14.2215 0 10.5 0H7.5C3.7785 0 0.75 3.0285 0.75 6.75V10.539C0.2775 11.2898 0 12.1748 0 13.125C0 15.813 2.187 18 4.875 18C5.3175 18 5.7645 17.937 6.204 17.8125C6.52725 17.721 6.75 17.4263 6.75 17.091V9.159C6.75 8.82375 6.52725 8.529 6.204 8.4375C5.7645 8.313 5.3175 8.25 4.875 8.25C3.90825 8.25 3.009 8.5365 2.25 9.024V6.75C2.25 3.855 4.605 1.5 7.5 1.5H10.5C13.395 1.5 15.75 3.855 15.75 6.75V9.024C14.991 8.5365 14.0918 8.25 13.125 8.25C12.6825 8.25 12.2355 8.313 11.796 8.4375C11.4727 8.529 11.25 8.82375 11.25 9.159V17.0903C11.25 17.4255 11.4727 17.7203 11.796 17.8118C12.2355 17.937 12.6825 18 13.125 18C15.813 18 18 15.813 18 13.125C18 12.1748 17.7225 11.2898 17.25 10.539Z" fill="#0F2037"/>
</svg>
