<svg width="14" height="14" viewBox="0 0 14 14" fill="none" xmlns="http://www.w3.org/2000/svg">
<path d="M12.3333 0.333252H1.66668C0.933343 0.333252 0.34001 0.933252 0.34001 1.66659L0.333344 13.6666L3.00001 10.9999H12.3333C13.0667 10.9999 13.6667 10.3999 13.6667 9.66658V1.66659C13.6667 0.933252 13.0667 0.333252 12.3333 0.333252ZM10.3333 8.33325H3.66668C3.30001 8.33325 3.00001 8.03325 3.00001 7.66658C3.00001 7.29992 3.30001 6.99992 3.66668 6.99992H10.3333C10.7 6.99992 11 7.29992 11 7.66658C11 8.03325 10.7 8.33325 10.3333 8.33325ZM10.3333 6.33325H3.66668C3.30001 6.33325 3.00001 6.03325 3.00001 5.66658C3.00001 5.29992 3.30001 4.99992 3.66668 4.99992H10.3333C10.7 4.99992 11 5.29992 11 5.66658C11 6.03325 10.7 6.33325 10.3333 6.33325ZM10.3333 4.33325H3.66668C3.30001 4.33325 3.00001 4.03325 3.00001 3.66659C3.00001 3.29992 3.30001 2.99992 3.66668 2.99992H10.3333C10.7 2.99992 11 3.29992 11 3.66659C11 4.03325 10.7 4.33325 10.3333 4.33325Z" fill="white"/>
</svg>
