<svg width="16" height="16" viewBox="0 0 16 16" fill="none" xmlns="http://www.w3.org/2000/svg">
<path fill-rule="evenodd" clip-rule="evenodd" d="M1.99994 15.332H13.9999C14.7363 15.332 15.3333 14.7363 15.3333 14V2C15.3333 1.26367 14.7363 0.666016 13.9999 0.666016H1.99994C1.26355 0.666016 0.666626 1.26367 0.666626 2V14C0.666626 14.7363 1.26355 15.332 1.99994 15.332ZM12.748 5.08203C13.0981 5.08203 13.1771 5.26172 13.0981 5.50977C12.9747 6.08008 11.9503 7.58984 11.6331 8.05664L11.5399 8.19727C11.4156 8.40039 11.3705 8.49219 11.5399 8.7168C11.6012 8.80078 11.7313 8.92773 11.88 9.07422C12.0325 9.22461 12.2043 9.39258 12.3416 9.55273C12.8384 10.1172 13.2223 10.5918 13.3239 10.9199C13.4142 11.2461 13.2562 11.416 12.9174 11.416H11.7544C11.4461 11.416 11.2872 11.2383 10.9484 10.8613C10.8033 10.6992 10.6252 10.5 10.3882 10.2637C9.6994 9.59766 9.39453 9.50781 9.22516 9.50781C8.98804 9.50781 8.92029 9.56445 8.92029 9.90234V10.9531C8.92029 11.2363 8.82996 11.4043 8.08472 11.4043C6.85394 11.4043 5.48767 10.6602 4.52789 9.27148C3.08258 7.23828 2.68738 5.70312 2.68738 5.39844C2.68738 5.22852 2.74384 5.07031 3.08258 5.07031H4.2569C4.55048 5.07031 4.66339 5.19531 4.77631 5.52148C5.35217 7.18164 6.31195 8.63867 6.70715 8.63867C6.85394 8.63867 6.92169 8.57031 6.92169 8.19727V6.48242C6.8938 5.99414 6.72369 5.78125 6.59772 5.62305C6.51978 5.52539 6.45874 5.44922 6.45874 5.3418C6.45874 5.20508 6.57166 5.07031 6.75232 5.07031H8.58154C8.82996 5.07031 8.92029 5.20508 8.92029 5.5V7.81445C8.92029 8.0625 9.02191 8.15234 9.10095 8.15234C9.24774 8.15234 9.37195 8.0625 9.64294 7.79102C10.4785 6.85352 11.0769 5.4082 11.0769 5.4082C11.1559 5.24023 11.2914 5.08203 11.585 5.08203H12.748Z" fill="white"/>
</svg>
