<svg width="14" height="16" viewBox="0 0 14 16" fill="none" xmlns="http://www.w3.org/2000/svg">
<path d="M12.3333 2.00008H11.6667V1.33341C11.6667 0.966748 11.3667 0.666748 11 0.666748C10.6333 0.666748 10.3333 0.966748 10.3333 1.33341V2.00008H3.66668V1.33341C3.66668 0.966748 3.36668 0.666748 3.00001 0.666748C2.63334 0.666748 2.33334 0.966748 2.33334 1.33341V2.00008H1.66668C0.933343 2.00008 0.333344 2.60008 0.333344 3.33341V14.0001C0.333344 14.7334 0.933343 15.3334 1.66668 15.3334H12.3333C13.0667 15.3334 13.6667 14.7334 13.6667 14.0001V3.33341C13.6667 2.60008 13.0667 2.00008 12.3333 2.00008ZM11.6667 14.0001H2.33334C1.96668 14.0001 1.66668 13.7001 1.66668 13.3334V5.33342H12.3333V13.3334C12.3333 13.7001 12.0333 14.0001 11.6667 14.0001Z" fill="white"/>
</svg>
