<svg width="16" height="16" viewBox="0 0 16 16" fill="none" xmlns="http://www.w3.org/2000/svg">
<path d="M1.04348 2.0354C2.38297 3.75117 4.78124 5.37017 8 5.54423C7.82247 4.79921 7.80538 2.77708 9.2088 1.93669C9.8365 1.56077 10.4307 1.33398 11.1307 1.33398C12.0102 1.33398 12.7321 1.63812 13.5 2.37803C14.125 2.28622 15.2926 1.78008 15.5696 1.58126C15.3892 2.27892 14.6676 3.17472 14.1463 3.38741C14.625 3.38592 15.6775 3.09753 16 2.92713C15.5526 3.65245 14.7713 4.34728 14.3438 4.63566C14.8388 9.10537 10.8894 14.6617 5.2174 14.6673C3.59762 14.6689 1.83736 14.322 0 13.2636C1.81251 13.4778 3.75451 12.8855 4.86957 11.8601C3.46331 11.828 2.03901 10.8721 1.3913 9.40394C2.09589 9.62528 2.74549 9.73744 3.13043 9.40394C2.47422 9.32966 0.347826 8.15491 0.347826 5.87975C0.836481 6.2876 1.54005 6.70904 2.08696 6.59688C1.19205 6.06232 -0.108522 4.0265 1.04348 2.0354Z" fill="white"/>
</svg>
