<svg width="19" height="12" viewBox="0 0 19 12" fill="none" xmlns="http://www.w3.org/2000/svg">
<path fill-rule="evenodd" clip-rule="evenodd" d="M18.2222 12H5.77778C5.35 12 5 11.55 5 11C5 10.45 5.35 10 5.77778 10H18.2222C18.65 10 19 10.45 19 11C19 11.55 18.65 12 18.2222 12ZM18.2222 7H5.77778C5.35 7 5 6.55 5 6C5 5.45 5.35 5 5.77778 5H18.2222C18.65 5 19 5.45 19 6C19 6.55 18.65 7 18.2222 7ZM5.77778 2C5.35 2 5 1.55 5 1C5 0.45 5.35 0 5.77778 0H18.2222C18.65 0 19 0.45 19 1C19 1.55 18.65 2 18.2222 2H5.77778ZM3 7.5V9L0.118421 6.27C-0.0394737 6.12 -0.0394737 5.8875 0.118421 5.7375L3 3V4.5V5.25V6.75V7.5Z" fill="#0F2037"/>
</svg>
